<?xml version="1.0" encoding="UTF-8"?>
<svg id="Layer_1" xmlns="http://www.w3.org/2000/svg" version="1.1" viewBox="0 0 183.76 56.39">
  <!-- Generator: Adobe Illustrator 29.4.0, SVG Export Plug-In . SVG Version: 2.1.0 Build 152)  -->
  <defs>
    <style>
      .st0 {
        fill: none;
      }

      .st1 {
        fill-rule: evenodd;
      }

      .st1, .st2 {
        fill: #fff;
      }
    </style>
  </defs>
  <g id="LOGO">
    <g id="Artboard-7">
      <polygon id="Rectangle-7-Copy-4" class="st0" points="-66.21 -21.43 245.79 -21.43 245.79 78.58 -66.21 78.58 -66.21 -21.43"/>
      <g id="Group-2">
        <g id="Group">
          <path id="Combined-Shape" class="st1" d="M29.7.57c15.41,0,27.91,12.5,27.91,27.91s-12.5,27.91-27.91,27.91S1.79,43.91,1.79,28.48,14.28.57,29.7.57ZM43.82,12.99h-19.3c-5.71,0-10.34,4.63-10.34,10.34v19.29c0,.76.62,1.38,1.38,1.38h20.33c5.14,0,9.3-4.17,9.3-9.3v-7.92c0-.76-.62-1.38-1.38-1.38h-15.85c-.76,0-1.38.62-1.38,1.38v3.45c0,.72.54,1.31,1.24,1.37h9.78c.72,0,1.31.55,1.37,1.25v.13h0v.69c0,2.28-1.85,4.13-4.13,4.13h-13.09c-.76,0-1.38-.62-1.38-1.38v-13.09c0-2.21,1.74-4.02,3.93-4.13h19.5c.76,0,1.38-.62,1.38-1.38v-3.45c0-.76-.61-1.38-1.37-1.38h.01Z"/>
        </g>
        <path id="gitee" class="st2" d="M82.48,49.98c4.2,0,7.54-.82,10.05-2.45,2.5-1.64,3.75-3.76,3.75-6.36,0-4.2-3.13-6.29-9.4-6.29h-3.86c-1.29,0-2.21-.13-2.77-.38s-.84-.67-.84-1.26.18-1.08.55-1.47c.14-.17.32-.22.55-.17.89.25,1.75.38,2.56.38,2.88,0,5.22-.69,7.03-2.08,1.8-1.38,2.71-3.43,2.71-6.15,0-1.01-.18-1.9-.55-2.69-.03-.06-.02-.12.02-.19.04-.07.1-.1.19-.1h.96c.7,0,1.29-.24,1.76-.71.48-.48.71-1.06.71-1.76h0v-.59c0-.67-.24-1.25-.71-1.74-.48-.49-1.06-.73-1.76-.73h-6.17c-.2,0-.41-.03-.63-.08-1.09-.34-2.28-.5-3.57-.5-1.82,0-3.48.31-4.99.94-1.51.63-2.76,1.64-3.75,3.02-.99,1.38-1.49,3.03-1.49,4.93,0,1.31.31,2.52.92,3.61s1.38,1.97,2.31,2.64c.06.03.08.07.08.13s-.03.11-.08.17c-.78.56-1.41,1.24-1.89,2.04-.48.8-.71,1.62-.71,2.45,0,1.79.71,3.18,2.14,4.15.06.03.08.08.08.15s-.03.13-.08.19c-1.12.56-1.96,1.24-2.54,2.06-.57.81-.86,1.71-.86,2.69,0,1.4.48,2.57,1.43,3.52s2.17,1.63,3.67,2.04,3.22.61,5.18.61v-.02ZM83.06,27.38c-.92,0-1.67-.33-2.24-.99s-.86-1.6-.86-2.83.29-2.13.86-2.79,1.32-.99,2.24-.99,1.67.32,2.24.97c.57.64.86,1.58.86,2.81s-.29,2.18-.86,2.83c-.57.66-1.32.99-2.24.99ZM83.65,45.21c-1.59,0-2.86-.22-3.8-.65s-1.41-1.08-1.41-1.95c0-.7.32-1.36.96-1.97.08-.08.21-.13.38-.13h.13c.7.14,1.76.21,3.19.21h2.31c1.23,0,2.13.13,2.71.38.57.25.86.71.86,1.38,0,.78-.5,1.43-1.49,1.95s-2.27.78-3.84.78ZM103.96,11.71c1.26,0,2.29-.36,3.1-1.09s1.22-1.66,1.22-2.81-.41-2.09-1.22-2.83-1.85-1.11-3.1-1.11-2.34.37-3.17,1.11c-.83.74-1.24,1.69-1.24,2.83s.41,2.08,1.24,2.81,1.88,1.09,3.17,1.09ZM105.26,39.59c.67,0,1.25-.24,1.74-.73.49-.49.73-1.07.73-1.74h0v-19.51c0-.67-.24-1.25-.73-1.74-.49-.49-1.07-.73-1.74-.73h-2.64c-.7,0-1.29.24-1.76.73-.48.49-.71,1.07-.71,1.74h0v19.51c0,.67.24,1.25.71,1.74.48.49,1.06.73,1.76.73h2.64ZM123.51,40.16c1.06,0,2.11-.1,3.15-.29.67-.11,1.19-.48,1.55-1.09.25-.42.38-.85.38-1.3,0-.2,0-.41-.04-.63h0l-.17-.67c-.14-.59-.49-1.06-1.05-1.41-.56-.35-1.19-.54-1.89-.57-1.93-.08-2.89-1.34-2.89-3.78h0v-9.02c0-.2.1-.29.29-.29h2.98c.67,0,1.25-.24,1.74-.73s.73-1.07.73-1.74h0v-1.05c0-.67-.24-1.25-.73-1.74s-1.07-.73-1.74-.73h-2.98c-.2,0-.29-.1-.29-.29h0v-3.65c0-.7-.24-1.29-.73-1.76s-1.07-.71-1.74-.71h-1.43c-.7,0-1.31.23-1.85.69s-.85,1.04-.96,1.74h0l-.46,3.69c-.03.2-.15.31-.38.34h0l-.96.08c-.7.06-1.29.34-1.76.86-.48.52-.71,1.13-.71,1.83h0v.71c0,.67.24,1.25.73,1.74.49.49,1.07.73,1.74.73h.55c.2,0,.29.1.29.29h0v9.11c0,3.05.7,5.42,2.1,7.11,1.4,1.69,3.58,2.54,6.54,2.54h-.01ZM144.02,40.16c2.24,0,4.45-.52,6.63-1.55.62-.28,1.01-.77,1.17-1.47.08-.22.13-.45.13-.67,0-.42-.13-.84-.38-1.26h0l-.13-.25c-.34-.59-.83-.98-1.47-1.17-.31-.08-.62-.13-.92-.13-.36,0-.71.06-1.05.17-.95.34-1.93.5-2.94.5-3.3,0-5.3-1.47-6-4.41-.03-.08,0-.16.04-.23s.13-.1.21-.1h11.54c.73,0,1.37-.23,1.93-.69.56-.46.85-1.04.88-1.74h0v-.8c0-3.52-.89-6.38-2.68-8.56s-4.39-3.27-7.8-3.27c-1.48,0-2.92.3-4.3.9s-2.61,1.44-3.69,2.52-1.94,2.43-2.6,4.07-.99,3.42-.99,5.35c0,3.94,1.17,7.06,3.5,9.36,2.34,2.29,5.31,3.44,8.91,3.44h.01ZM146.87,24.65h-7.68c-.2,0-.29-.07-.29-.21,0-1.15.55-2.17,1.64-3.06.78-.67,1.72-1.01,2.81-1.01,1.26,0,2.2.36,2.83,1.07s.97,1.67,1.03,2.87h0v.04c0,.2-.11.29-.34.29h0ZM169.61,40.16c2.24,0,4.45-.52,6.63-1.55.62-.28,1.01-.77,1.17-1.47.08-.22.13-.45.13-.67,0-.42-.13-.84-.38-1.26h0l-.13-.25c-.34-.59-.83-.98-1.47-1.17-.31-.08-.62-.13-.92-.13-.36,0-.71.06-1.05.17-.95.34-1.93.5-2.94.5-3.3,0-5.3-1.47-6-4.41-.03-.08,0-.16.04-.23.06-.07.13-.1.21-.1h11.54c.73,0,1.37-.23,1.93-.69.56-.46.85-1.04.88-1.74h0v-.8c0-3.52-.89-6.38-2.68-8.56s-4.39-3.27-7.8-3.27c-1.48,0-2.92.3-4.3.9s-2.61,1.44-3.69,2.52-1.94,2.43-2.6,4.07-.99,3.42-.99,5.35c0,3.94,1.17,7.06,3.5,9.36,2.34,2.29,5.31,3.44,8.91,3.44h.01ZM172.46,24.65h-7.68c-.2,0-.29-.07-.29-.21,0-1.15.55-2.17,1.64-3.06.78-.67,1.72-1.01,2.81-1.01,1.26,0,2.2.36,2.83,1.07s.97,1.67,1.03,2.87h0v.04c0,.2-.11.29-.34.29h0Z"/>
      </g>
    </g>
  </g>
</svg>